<svg xmlns="http://www.w3.org/2000/svg" viewBox="0 0 32 32" width="32" height="32">
  <defs>
    <linearGradient id="g" x1="0" y1="0" x2="1" y2="1">
      <stop offset="0" stop-color="#10b981"/>
      <stop offset="1" stop-color="#14b8a6"/>
    </linearGradient>
  </defs>
  <rect width="32" height="32" rx="8" fill="#08090e"/>
  <g transform="translate(4,4)" fill="none" stroke="url(#g)" stroke-width="2.1" stroke-linecap="round" stroke-linejoin="round">
    <path d="M9.5 5C8 5 8 6.5 8 8c0 1.5-.6 3-2 4 1.4 1 2 2.5 2 4 0 1.5 0 3 1.5 3"/>
    <path d="M14.5 5C16 5 16 6.5 16 8c0 1.5.6 3 2 4-1.4 1-2 2.5-2 4 0 1.5 0 3-1.5 3"/>
    <path d="M12 8.6v6.8"/>
    <path d="M10.4 10 12 8.3 13.6 10"/>
    <path d="M10.4 14 12 15.7 13.6 14"/>
  </g>
</svg>
